<?xml version="1.0" encoding="UTF-8"?>
<svg id="Lager_2" data-name="Lager 2" xmlns="http://www.w3.org/2000/svg" xmlns:xlink="http://www.w3.org/1999/xlink" viewBox="0 0 1999.92 1999.92">
  <defs>
    <style>
      .cls-1 {
        fill: url(#Namnlös_övertoning_119-6);
      }

      .cls-2 {
        fill: url(#Namnlös_övertoning_119-5);
      }

      .cls-3 {
        fill: url(#Namnlös_övertoning_119-4);
      }

      .cls-4 {
        fill: url(#Namnlös_övertoning_119-13);
      }

      .cls-5 {
        fill: url(#Namnlös_övertoning_119);
      }

      .cls-6 {
        fill: url(#Namnlös_övertoning_119-2);
      }

      .cls-7 {
        fill: url(#Namnlös_övertoning_119-12);
      }

      .cls-8 {
        fill: url(#Namnlös_övertoning_119-21);
      }

      .cls-9 {
        fill: url(#Namnlös_övertoning_119-14);
      }

      .cls-10 {
        fill: url(#Namnlös_övertoning_119-19);
      }

      .cls-11 {
        fill: url(#Namnlös_övertoning_119-20);
      }

      .cls-12 {
        fill: url(#Namnlös_övertoning_119-16);
      }

      .cls-13 {
        fill: url(#Namnlös_övertoning_119-10);
      }

      .cls-14 {
        fill: url(#Namnlös_övertoning_119-11);
      }

      .cls-15 {
        fill: url(#Namnlös_övertoning_119-9);
      }

      .cls-16 {
        fill: url(#Namnlös_övertoning_119-3);
      }

      .cls-17 {
        fill: url(#Namnlös_övertoning_119-7);
      }

      .cls-18 {
        fill: url(#Namnlös_övertoning_119-17);
      }

      .cls-19 {
        fill: url(#Namnlös_övertoning_119-18);
      }

      .cls-20 {
        fill: url(#Namnlös_övertoning_119-15);
      }

      .cls-21 {
        fill: url(#Namnlös_övertoning_119-8);
      }
    </style>
    <linearGradient id="Namnlös_övertoning_119" data-name="Namnlös övertoning 119" x1="336.63" y1="1043.62" x2="1959.3" y2="817.62" gradientUnits="userSpaceOnUse">
      <stop offset="0" stop-color="#b07b1a"/>
      <stop offset=".07" stop-color="#b5801d"/>
      <stop offset=".17" stop-color="#c49126"/>
      <stop offset=".29" stop-color="#deac34"/>
      <stop offset=".37" stop-color="#f5c542"/>
      <stop offset=".41" stop-color="#ebba3c"/>
      <stop offset=".55" stop-color="#d29f2d"/>
      <stop offset=".7" stop-color="#c08d23"/>
      <stop offset=".84" stop-color="#b6811d"/>
      <stop offset="1" stop-color="#b37e1b"/>
    </linearGradient>
    <linearGradient id="Namnlös_övertoning_119-2" data-name="Namnlös övertoning 119" x1="336.54" y1="1042.98" x2="1959.21" y2="816.98" xlink:href="#Namnlös_övertoning_119"/>
    <linearGradient id="Namnlös_övertoning_119-3" data-name="Namnlös övertoning 119" x1="337.69" y1="1051.22" x2="1960.36" y2="825.22" xlink:href="#Namnlös_övertoning_119"/>
    <linearGradient id="Namnlös_övertoning_119-4" data-name="Namnlös övertoning 119" x1="339.91" y1="1067.16" x2="1962.58" y2="841.16" xlink:href="#Namnlös_övertoning_119"/>
    <linearGradient id="Namnlös_övertoning_119-5" data-name="Namnlös övertoning 119" x1="340.02" y1="1067.94" x2="1962.68" y2="841.94" xlink:href="#Namnlös_övertoning_119"/>
    <linearGradient id="Namnlös_övertoning_119-6" data-name="Namnlös övertoning 119" x1="342.03" y1="1082.41" x2="1964.7" y2="856.41" xlink:href="#Namnlös_övertoning_119"/>
    <linearGradient id="Namnlös_övertoning_119-7" data-name="Namnlös övertoning 119" x1="343.59" y1="1093.56" x2="1966.25" y2="867.56" xlink:href="#Namnlös_övertoning_119"/>
    <linearGradient id="Namnlös_övertoning_119-8" data-name="Namnlös övertoning 119" x1="344.61" y1="1100.93" x2="1967.28" y2="874.93" xlink:href="#Namnlös_övertoning_119"/>
    <linearGradient id="Namnlös_övertoning_119-9" data-name="Namnlös övertoning 119" x1="344.19" y1="1097.88" x2="1966.85" y2="871.88" xlink:href="#Namnlös_övertoning_119"/>
    <linearGradient id="Namnlös_övertoning_119-10" data-name="Namnlös övertoning 119" x1="346.38" y1="1113.61" x2="1969.04" y2="887.61" xlink:href="#Namnlös_övertoning_119"/>
    <linearGradient id="Namnlös_övertoning_119-11" data-name="Namnlös övertoning 119" x1="347.4" y1="1120.97" x2="1970.07" y2="894.97" xlink:href="#Namnlös_övertoning_119"/>
    <linearGradient id="Namnlös_övertoning_119-12" data-name="Namnlös övertoning 119" x1="347.67" y1="1122.88" x2="1970.34" y2="896.88" xlink:href="#Namnlös_övertoning_119"/>
    <linearGradient id="Namnlös_övertoning_119-13" data-name="Namnlös övertoning 119" x1="349.68" y1="1137.3" x2="1972.34" y2="911.3" xlink:href="#Namnlös_övertoning_119"/>
    <linearGradient id="Namnlös_övertoning_119-14" data-name="Namnlös övertoning 119" x1="350.43" y1="1142.73" x2="1973.1" y2="916.73" xlink:href="#Namnlös_övertoning_119"/>
    <linearGradient id="Namnlös_övertoning_119-15" data-name="Namnlös övertoning 119" x1="351.15" y1="1147.88" x2="1973.82" y2="921.88" xlink:href="#Namnlös_övertoning_119"/>
    <linearGradient id="Namnlös_övertoning_119-16" data-name="Namnlös övertoning 119" x1="352.33" y1="1156.34" x2="1975" y2="930.34" xlink:href="#Namnlös_övertoning_119"/>
    <linearGradient id="Namnlös_övertoning_119-17" data-name="Namnlös övertoning 119" x1="354.45" y1="1171.56" x2="1977.12" y2="945.56" xlink:href="#Namnlös_övertoning_119"/>
    <linearGradient id="Namnlös_övertoning_119-18" data-name="Namnlös övertoning 119" x1="355.23" y1="1177.15" x2="1977.89" y2="951.15" xlink:href="#Namnlös_övertoning_119"/>
    <linearGradient id="Namnlös_övertoning_119-19" data-name="Namnlös övertoning 119" x1="354.46" y1="1171.67" x2="1977.13" y2="945.67" xlink:href="#Namnlös_övertoning_119"/>
    <linearGradient id="Namnlös_övertoning_119-20" data-name="Namnlös övertoning 119" x1="356.64" y1="1187.29" x2="1979.31" y2="961.29" xlink:href="#Namnlös_övertoning_119"/>
    <linearGradient id="Namnlös_övertoning_119-21" data-name="Namnlös övertoning 119" x1="357.53" y1="1193.67" x2="1980.2" y2="967.67" xlink:href="#Namnlös_övertoning_119"/>
  </defs>
  <path class="cls-5" d="M363.22,1154.44v-200.39l44.44-28.22v-53.89h45.28v24.78l80.56-51.39,23.67,15-9.78,6.67-13.67-8.89-159.56,101.83v183.83h52.72v-189.83l170.33-108.89,170.39,108.89v29.28h-10.67v-23.28l-159.67-101.83-21.67,13.83,128.44,82.06v29.33h-10.72v-23.33l-127.79-81.5-127.75,81.42v183.92h71.67v-37.94l.02-.58.02-.1s3.63-20.21,24.42-20.42,23.92,21.5,23.92,21.5v37.58h135.5v-67.5h10.83v67.42h52.75v-67.42h10.83v78.07h-404.53Z"/>
  <g>
    <path class="cls-6" d="M543.08,988.8l-27.62,64.4h-14.59l-27.53-64.4h15.95l19.42,46,19.69-46h14.68Z"/>
    <path class="cls-16" d="M587.12,1024.95v28.24h-13.31v-6.16c-2.64,4.51-7.75,6.9-14.95,6.9-11.49,0-18.33-6.44-18.33-15s6.11-14.81,21.06-14.81h11.31c0-6.16-3.65-9.75-11.31-9.75-5.2,0-10.58,1.75-14.13,4.6l-5.11-10.03c5.38-3.86,13.31-5.98,21.15-5.98,14.95,0,23.61,6.99,23.61,21.99ZM549.37,990.55c0-3.77,2.83-6.35,6.38-6.35s6.29,2.58,6.29,6.35-2.73,6.35-6.29,6.35-6.38-2.58-6.38-6.35ZM572.89,1037.56v-5.06h-9.76c-6.66,0-8.75,2.48-8.75,5.8,0,3.59,3.01,5.98,8.02,5.98,4.74,0,8.84-2.21,10.48-6.72ZM567.88,990.55c0-3.77,2.74-6.35,6.29-6.35s6.38,2.58,6.38,6.35-2.83,6.35-6.38,6.35-6.29-2.58-6.29-6.35Z"/>
    <path class="cls-3" d="M595.23,1048.6l4.74-10.3c4.38,2.85,11.03,4.78,17.05,4.78,6.56,0,9.03-1.75,9.03-4.51,0-8.1-29.63.18-29.63-19.6,0-9.38,8.39-16.01,22.7-16.01,6.75,0,14.22,1.56,18.87,4.32l-4.74,10.21c-4.83-2.76-9.66-3.68-14.13-3.68-6.38,0-9.12,2.02-9.12,4.6,0,8.46,29.63.28,29.63,19.78,0,9.2-8.48,15.73-23.16,15.73-8.3,0-16.68-2.3-21.24-5.34Z"/>
    <path class="cls-2" d="M680.02,1050.8c-2.92,2.12-7.2,3.13-11.58,3.13-11.58,0-18.33-5.98-18.33-17.76v-20.33h-7.57v-11.04h7.57v-12.05h14.22v12.05h12.22v11.04h-12.22v20.15c0,4.23,2.28,6.53,6.11,6.53,2.1,0,4.19-.64,5.74-1.84l3.83,10.12Z"/>
    <path class="cls-1" d="M770.92,1024.86v28.33h-14.22v-26.13c0-8-3.56-11.68-9.3-11.68-6.38,0-10.85,4.14-10.85,12.97v24.84h-14.22v-26.13c0-8-3.37-11.68-9.3-11.68-6.29,0-10.76,4.14-10.76,12.97v24.84h-14.22v-49.49h13.58v5.7c3.65-4.23,9.12-6.44,15.41-6.44,6.84,0,12.67,2.67,16.14,8.1,3.92-5.06,10.3-8.1,17.69-8.1,11.67,0,20.06,6.81,20.06,21.89Z"/>
    <path class="cls-17" d="M827.09,1024.95v28.24h-13.31v-6.16c-2.64,4.51-7.75,6.9-14.95,6.9-11.49,0-18.33-6.44-18.33-15s6.11-14.81,21.06-14.81h11.31c0-6.16-3.65-9.75-11.31-9.75-5.2,0-10.58,1.75-14.13,4.6l-5.11-10.03c5.38-3.86,13.31-5.98,21.15-5.98,14.95,0,23.61,6.99,23.61,21.99ZM812.86,1037.56v-5.06h-9.76c-6.66,0-8.75,2.48-8.75,5.8,0,3.59,3.01,5.98,8.02,5.98,4.74,0,8.84-2.21,10.48-6.72Z"/>
    <path class="cls-21" d="M890.09,1024.86v28.33h-14.22v-26.13c0-8-3.65-11.68-9.94-11.68-6.84,0-11.76,4.23-11.76,13.34v24.47h-14.22v-49.49h13.58v5.8c3.83-4.23,9.57-6.53,16.23-6.53,11.58,0,20.33,6.81,20.33,21.89Z"/>
    <path class="cls-15" d="M902.95,984.94h14.22v68.26h-14.22v-68.26Z"/>
    <path class="cls-13" d="M973.79,1024.95v28.24h-13.31v-6.16c-2.64,4.51-7.75,6.9-14.95,6.9-11.49,0-18.33-6.44-18.33-15s6.11-14.81,21.06-14.81h11.31c0-6.16-3.65-9.75-11.31-9.75-5.2,0-10.58,1.75-14.13,4.6l-5.11-10.03c5.38-3.86,13.31-5.98,21.15-5.98,14.95,0,23.61,6.99,23.61,21.99ZM959.56,1037.56v-5.06h-9.76c-6.66,0-8.75,2.48-8.75,5.8,0,3.59,3.01,5.98,8.02,5.98,4.74,0,8.84-2.21,10.48-6.72Z"/>
    <path class="cls-14" d="M1036.79,1024.86v28.33h-14.22v-26.13c0-8-3.65-11.68-9.94-11.68-6.84,0-11.76,4.23-11.76,13.34v24.47h-14.22v-49.49h13.58v5.8c3.83-4.23,9.57-6.53,16.23-6.53,11.58,0,20.33,6.81,20.33,21.89Z"/>
    <path class="cls-7" d="M1100.15,984.94v68.26h-13.58v-5.7c-3.56,4.32-8.75,6.44-15.32,6.44-13.86,0-24.53-9.94-24.53-25.48s10.67-25.48,24.53-25.48c6.02,0,11.12,1.93,14.68,5.98v-24.01h14.22ZM1086.2,1028.45c0-8.56-5.47-13.71-12.49-13.71s-12.58,5.15-12.58,13.71,5.47,13.71,12.58,13.71,12.49-5.15,12.49-13.71Z"/>
    <path class="cls-4" d="M1108.54,1048.6l4.74-10.3c4.38,2.85,11.03,4.78,17.05,4.78,6.56,0,9.03-1.75,9.03-4.51,0-8.1-29.63.18-29.63-19.6,0-9.38,8.39-16.01,22.7-16.01,6.75,0,14.22,1.56,18.87,4.32l-4.74,10.21c-4.83-2.76-9.66-3.68-14.13-3.68-6.38,0-9.12,2.02-9.12,4.6,0,8.46,29.63.28,29.63,19.78,0,9.2-8.48,15.73-23.16,15.73-8.3,0-16.68-2.3-21.24-5.34Z"/>
    <path class="cls-9" d="M1246.58,1053.2l-.09-38.64-18.78,31.83h-6.66l-18.69-31v37.81h-13.86v-64.4h12.22l23.89,40.02,23.52-40.02h12.13l.18,64.4h-13.86Z"/>
    <path class="cls-20" d="M1317.97,1024.95v28.24h-13.31v-6.16c-2.64,4.51-7.75,6.9-14.95,6.9-11.49,0-18.33-6.44-18.33-15s6.11-14.81,21.06-14.81h11.31c0-6.16-3.65-9.75-11.31-9.75-5.2,0-10.58,1.75-14.13,4.6l-5.11-10.03c5.38-3.86,13.31-5.98,21.15-5.98,14.95,0,23.61,6.99,23.61,21.99ZM1284.51,987.6c0-6.16,4.83-11.13,11.21-11.13s11.4,4.97,11.4,11.13-4.92,11.13-11.4,11.13-11.21-4.88-11.21-11.13ZM1303.74,1037.56v-5.06h-9.76c-6.66,0-8.75,2.48-8.75,5.8,0,3.59,3.01,5.98,8.02,5.98,4.74,0,8.84-2.21,10.48-6.72ZM1290.25,987.6c0,3.22,2.37,5.61,5.47,5.61s5.56-2.39,5.56-5.61-2.37-5.61-5.56-5.61c-3.01,0-5.47,2.39-5.47,5.61Z"/>
    <path class="cls-12" d="M1330.82,984.94h14.22v68.26h-14.22v-68.26Z"/>
    <path class="cls-18" d="M1406.04,1032.5h-37.11c1.37,6.16,6.56,9.94,14.04,9.94,5.2,0,8.93-1.56,12.31-4.78l7.57,8.28c-4.56,5.24-11.4,8-20.24,8-16.96,0-27.99-10.76-27.99-25.48s11.21-25.48,26.17-25.48,25.53,9.75,25.53,25.67c0,1.1-.18,2.67-.27,3.86ZM1368.75,1024.12h24.16c-1-6.26-5.65-10.3-12.03-10.3s-11.12,3.96-12.13,10.3Z"/>
    <path class="cls-19" d="M1446.25,1002.97v13.25c-1.19-.09-2.1-.18-3.19-.18-7.84,0-13.04,4.32-13.04,13.8v23.37h-14.22v-49.49h13.58v6.53c3.46-4.78,9.3-7.27,16.87-7.27Z"/>
    <path class="cls-10" d="M1453,988.8c0-4.51,3.56-8,8.84-8s8.84,3.31,8.84,7.73c0,4.78-3.56,8.28-8.84,8.28s-8.84-3.5-8.84-8ZM1454.73,1003.7h14.22v49.49h-14.22v-49.49Z"/>
    <path class="cls-11" d="M1551.01,1039.4h-29.63l-5.65,13.8h-15.13l28.45-64.4h14.59l28.54,64.4h-15.5l-5.65-13.8ZM1546.36,1028.08l-10.12-24.66-10.12,24.66h20.24Z"/>
    <path class="cls-8" d="M1637.35,1035.62c0,11.13-8.75,17.57-25.53,17.57h-33v-64.4h31.18c15.96,0,24.16,6.72,24.16,16.74,0,6.44-3.28,11.41-8.48,14.17,7.11,2.3,11.67,7.82,11.67,15.92ZM1593.5,1000.02v15.18h14.68c7.2,0,11.12-2.58,11.12-7.64s-3.92-7.54-11.12-7.54h-14.68ZM1622.49,1034.06c0-5.43-4.1-8-11.76-8h-17.23v15.92h17.23c7.66,0,11.76-2.39,11.76-7.91Z"/>
  </g>
</svg>